<?xml version="1.0" encoding="UTF-8"?>
<svg id="Layer_1" data-name="Layer 1" xmlns="http://www.w3.org/2000/svg" version="1.1" viewBox="0 0 32 32">
  <defs>
    <style>
      .cls-1 {
        fill: #000;
        stroke: #000;
      }

      .cls-2 {
        fill: #f0f0f0;
        stroke-width: 0px;
      }
    </style>
  </defs>
  <g id="Layer_2" data-name="Layer 2">
    <ellipse class="cls-2" cx="17.6" cy="20.5" rx="8.4" ry="8"/>
    <ellipse class="cls-2" cx="13.3" cy="11.6" rx="2.7" ry="7.6"/>
    <ellipse class="cls-2" cx="18.7" cy="9.5" rx="2.7" ry="7.6"/>
    <ellipse class="cls-2" cx="24" cy="13.1" rx="2.7" ry="7.6"/>
    <ellipse class="cls-2" cx="9.6" cy="21.1" rx="3.1" ry="8.7" transform="translate(-10.5 9.6) rotate(-35.8)"/>
  </g>
  <g id="Layer_1-2" data-name="Layer 1">
    <g id="surface1">
      <path class="cls-1" d="M23.5,5.5c-.7,0-1.4.3-2,.8v-1.8c0-1.6-1.3-2.9-2.9-3-1.6,0-3,1.2-3.1,2.8-.9-.8-2.1-1-3.2-.5-1.1.5-1.8,1.6-1.8,2.7v11.3l-1.8-3.1c-.8-1.4-2.7-1.9-4.1-1.1-1.4.8-1.9,2.6-1.1,4.1,4,8.4,6.6,11.9,12.5,11.9s10.5-4.7,10.5-10.5v-10.5c0-1.7-1.3-3.1-3-3.1h0ZM25.5,19c0,5.2-4.3,9.5-9.5,9.5s-7.1-1.7-11.6-11.3h0c-.6-1-.2-2.2.7-2.7,1-.6,2.2-.2,2.7.7l2.7,4.8c.1.2.3.3.6.2s.4-.3.4-.5V6.5c0-1.1.9-2,2-2s2,.9,2,2v8.5c0,.3.2.5.5.5s.5-.2.5-.5V4.5c0-1.1.9-2,2-2s2,.9,2,2v10.5c0,.3.2.5.5.5s.5-.2.5-.5v-6.5c0-1.1.9-2,2-2s2,.9,2,2v10.5Z"/>
    </g>
  </g>
</svg>